<svg xmlns="http://www.w3.org/2000/svg" xmlns:xlink="http://www.w3.org/1999/xlink">
    <defs>
        <symbol id="warning" width="100%" height="100%" viewBox="0 0 32 32" xmlns="http://www.w3.org/2000/svg">
            <path
                d="M10.4574 9.60001C12.2763 6.44963 13.1857 4.87444 14.3731 4.34582C15.4087 3.88473 16.5913 3.88473 17.6269 4.34582C18.8143 4.87444 19.7237 6.44963 21.5426 9.6L26.9119 18.9C28.7308 22.0504 29.6402 23.6256 29.5044 24.9181C29.3859 26.0455 28.7946 27.0697 27.8774 27.7361C26.826 28.5 25.0071 28.5 21.3694 28.5H10.6307C6.99291 28.5 5.17404 28.5 4.12258 27.7361C3.20545 27.0697 2.61413 26.0455 2.49563 24.9181C2.35978 23.6256 3.26921 22.0504 5.08808 18.9L10.4574 9.60001Z"
                fill="currentColor" />
            <path
                d="M14.88 19.7464L14.6 10.1664H17.34L17.04 19.7464H14.88ZM16.02 24.3064C15.54 24.3064 15.1466 24.1598 14.84 23.8664C14.5466 23.5731 14.4 23.2198 14.4 22.8064C14.4 22.3798 14.5466 22.0198 14.84 21.7264C15.1466 21.4331 15.54 21.2864 16.02 21.2864C16.4733 21.2864 16.8466 21.4331 17.14 21.7264C17.4466 22.0198 17.6 22.3798 17.6 22.8064C17.6 23.2198 17.4466 23.5731 17.14 23.8664C16.8466 24.1598 16.4733 24.3064 16.02 24.3064Z"
                fill="black" />
        </symbol>
        <symbol id="sun" width="100%" height="100%" viewBox="0 0 32 32" fill="currentColor"
            xmlns="http://www.w3.org/2000/svg">
            <path fill-rule="evenodd" clip-rule="evenodd"
                d="M16 2.43332C16.2762 2.43332 16.5 2.65718 16.5 2.93332V6.66665C16.5 6.94279 16.2762 7.16665 16 7.16665C15.7239 7.16665 15.5 6.94279 15.5 6.66665V2.93332C15.5 2.65718 15.7239 2.43332 16 2.43332ZM6.40693 6.4069C6.6022 6.21164 6.91878 6.21164 7.11404 6.4069L9.75391 9.04677C9.94917 9.24203 9.94917 9.55861 9.75391 9.75388C9.55864 9.94914 9.24206 9.94914 9.0468 9.75388L6.40693 7.11401C6.21167 6.91875 6.21167 6.60217 6.40693 6.4069ZM2.93335 15.5C2.65721 15.5 2.43335 15.7238 2.43335 16C2.43335 16.2761 2.65721 16.5 2.93335 16.5H6.66668C6.94283 16.5 7.16668 16.2761 7.16668 16C7.16668 15.7238 6.94283 15.5 6.66668 15.5H2.93335ZM6.40693 25.5931C6.21167 25.3978 6.21167 25.0812 6.40693 24.886L9.0468 22.2461C9.24206 22.0508 9.55864 22.0508 9.75391 22.2461C9.94917 22.4414 9.94917 22.7579 9.75391 22.9532L7.11404 25.5931C6.91878 25.7883 6.6022 25.7883 6.40693 25.5931ZM25.3334 15.5C25.0572 15.5 24.8334 15.7238 24.8334 16C24.8334 16.2761 25.0572 16.5 25.3334 16.5H29.0667C29.3428 16.5 29.5667 16.2761 29.5667 16C29.5667 15.7238 29.3428 15.5 29.0667 15.5H25.3334ZM22.2461 9.75388C22.0509 9.55861 22.0509 9.24203 22.2461 9.04677L24.886 6.4069C25.0813 6.21164 25.3978 6.21164 25.5931 6.4069C25.7884 6.60217 25.7884 6.91875 25.5931 7.11401L22.9532 9.75388C22.758 9.94914 22.4414 9.94914 22.2461 9.75388ZM16.5 25.3333C16.5 25.0572 16.2762 24.8333 16 24.8333C15.7239 24.8333 15.5 25.0572 15.5 25.3333V29.0667C15.5 29.3428 15.7239 29.5667 16 29.5667C16.2762 29.5667 16.5 29.3428 16.5 29.0667V25.3333ZM22.2461 22.2461C22.4414 22.0508 22.758 22.0508 22.9532 22.2461L25.5931 24.886C25.7884 25.0812 25.7884 25.3978 25.5931 25.5931C25.3978 25.7883 25.0813 25.7883 24.886 25.5931L22.2461 22.9532C22.0509 22.7579 22.0509 22.4414 22.2461 22.2461ZM11.8333 16C11.8333 13.6988 13.6988 11.8333 16 11.8333C18.3012 11.8333 20.1667 13.6988 20.1667 16C20.1667 18.3012 18.3012 20.1667 16 20.1667C13.6988 20.1667 11.8333 18.3012 11.8333 16ZM16 10.8333C13.1465 10.8333 10.8333 13.1465 10.8333 16C10.8333 18.8535 13.1465 21.1667 16 21.1667C18.8535 21.1667 21.1667 18.8535 21.1667 16C21.1667 13.1465 18.8535 10.8333 16 10.8333Z"
                fill="currentColor" />
        </symbol>
        <symbol id="moon" width="100%" height="100%" viewBox="0 0 32 32" fill="currentColor"
            xmlns="http://www.w3.org/2000/svg">
            <path fill-rule="evenodd" clip-rule="evenodd"
                d="M7.06666 2.93333C7.06666 2.71241 6.88757 2.53333 6.66666 2.53333C6.44574 2.53333 6.26666 2.71241 6.26666 2.93333V4.39999H4.79999C4.57908 4.39999 4.39999 4.57908 4.39999 4.79999C4.39999 5.02091 4.57908 5.19999 4.79999 5.19999H6.26666V6.66666C6.26666 6.88757 6.44574 7.06666 6.66666 7.06666C6.88757 7.06666 7.06666 6.88757 7.06666 6.66666V5.19999H8.53333C8.75424 5.19999 8.93333 5.02091 8.93333 4.79999C8.93333 4.57908 8.75424 4.39999 8.53333 4.39999H7.06666V2.93333ZM12.6667 8.53333C12.6667 8.31241 12.4876 8.13333 12.2667 8.13333C12.0457 8.13333 11.8667 8.31241 11.8667 8.53333V9.99999H10.4C10.1791 9.99999 9.99999 10.1791 9.99999 10.4C9.99999 10.6209 10.1791 10.8 10.4 10.8H11.8667V12.2667C11.8667 12.4876 12.0457 12.6667 12.2667 12.6667C12.4876 12.6667 12.6667 12.4876 12.6667 12.2667V10.8H14.1333C14.3542 10.8 14.5333 10.6209 14.5333 10.4C14.5333 10.1791 14.3542 9.99999 14.1333 9.99999H12.6667V8.53333ZM5.19999 14.1333C5.19999 13.9124 5.02091 13.7333 4.79999 13.7333C4.57908 13.7333 4.39999 13.9124 4.39999 14.1333V15.6H2.93333C2.71241 15.6 2.53333 15.7791 2.53333 16C2.53333 16.2209 2.71241 16.4 2.93333 16.4H4.39999V17.8667C4.39999 18.0876 4.57908 18.2667 4.79999 18.2667C5.02091 18.2667 5.19999 18.0876 5.19999 17.8667V16.4H6.66666C6.88757 16.4 7.06666 16.2209 7.06666 16C7.06666 15.7791 6.88757 15.6 6.66666 15.6H5.19999V14.1333ZM17.9489 3.8328L17.3929 3.75767C16.9945 3.71303 16.7596 4.17564 16.9882 4.50499C17.2509 4.88364 17.493 5.27775 17.7128 5.68568C18.6484 7.42242 19.1794 9.40943 19.1794 11.5204C19.1794 17.6278 14.7353 22.6973 8.9046 23.6715C8.45378 23.7467 7.99182 23.7975 7.52553 23.8225C7.12521 23.8438 6.90432 24.3133 7.18417 24.6002C7.31166 24.731 7.44202 24.8589 7.57515 24.984L7.70986 25.1085L8.19519 25.5284L8.54614 25.806L8.77223 25.9742L9.1212 26.2186L9.44951 26.4328C9.6753 26.575 9.90604 26.7101 10.1416 26.8378L10.6333 27.0903L11.1197 27.3134L11.685 27.5414L12.1392 27.7014C12.3892 27.7839 12.6428 27.8587 12.8987 27.9252C13.0929 27.9757 13.289 28.0216 13.4876 28.0628C13.7226 28.1116 13.96 28.1537 14.1995 28.1889L14.7912 28.2613L15.2895 28.3C15.5266 28.3136 15.7655 28.3204 16.0061 28.3204C22.8101 28.3204 28.326 22.8046 28.326 16.0005C28.326 15.5342 28.3001 15.074 28.2497 14.6212L28.1809 14.1036C28.1165 13.6869 28.0312 13.2771 27.9264 12.876C27.7998 12.3919 27.6446 11.9195 27.4631 11.4618L27.2522 10.9625L27.108 10.6528L26.9697 10.3751C26.6732 9.79846 26.3326 9.24821 25.9515 8.72793L25.666 8.35328L25.2947 7.90677L24.9894 7.56944L24.7662 7.33778L24.4663 7.04462L24.0516 6.67013L23.4528 6.18494L22.9969 5.85468L22.4515 5.49902L21.8513 5.15273L21.2402 4.84443L21.0284 4.74732L20.5825 4.55849L20.0655 4.36492L19.5946 4.21128L18.9881 4.04384L18.4939 3.93178L17.9489 3.8328ZM21.4194 11.8938C21.4194 9.98168 21.0404 8.15684 20.3539 6.49131C23.9564 8.14128 26.4594 11.7788 26.4594 16.0005C26.4594 21.7737 21.7792 26.4538 16.0061 26.4538C14.3881 26.4538 12.8565 26.0868 11.4893 25.4308C14.2116 24.5756 16.5802 22.922 18.3207 20.7444C18.5753 21.093 18.9872 21.3195 19.452 21.3195C20.2252 21.3195 20.852 20.6927 20.852 19.9195C20.852 19.2528 20.386 18.695 19.762 18.5539C19.8779 18.3365 19.9882 18.1156 20.0929 17.8916C20.4494 18.1124 20.8698 18.2399 21.3199 18.2399C22.6086 18.2399 23.6533 17.1952 23.6533 15.9066C23.6533 14.6183 22.6092 13.5738 21.321 13.5732C21.386 13.0225 21.4194 12.462 21.4194 11.8938Z"
                fill="currentColor" />
        </symbol>
        <symbol id="gear" width="100%" height="100%" viewBox="0 0 32 32" fill="currentColor"
            xmlns="http://www.w3.org/2000/svg">
            <path fill-rule="evenodd" clip-rule="evenodd"
                d="M15.1992 3.21381C14.4581 3.21381 13.8157 3.72688 13.6518 4.44966L13.2074 6.40998C12.4999 6.61572 11.825 6.89747 11.1923 7.24561L9.49171 6.17362C8.86476 5.7784 8.04771 5.86985 7.52365 6.39391L6.39228 7.52528C5.86822 8.04934 5.77677 8.86638 6.17199 9.49334L7.24437 11.1945C6.89653 11.8271 6.61503 12.5018 6.40949 13.209L4.44936 13.6534C3.72657 13.8172 3.2135 14.4596 3.2135 15.2008V16.8008C3.2135 17.5419 3.72657 18.1843 4.44936 18.3482L6.40972 18.7926C6.61537 19.5 6.89703 20.1749 7.24507 20.8076L6.17287 22.5085C5.77765 23.1354 5.8691 23.9525 6.39316 24.4765L7.52453 25.6079C8.04859 26.132 8.86563 26.2234 9.49259 25.8282L11.1936 24.7559C11.826 25.1038 12.5004 25.3853 13.2074 25.5909L13.6518 27.5512C13.8157 28.274 14.4581 28.7871 15.1992 28.7871H16.7992C17.5404 28.7871 18.1828 28.274 18.3466 27.5512L18.7909 25.5916C19.4985 25.386 20.1735 25.1044 20.8064 24.7564L22.5072 25.8286C23.1342 26.2238 23.9512 26.1324 24.4753 25.6083L25.6067 24.4769C26.1307 23.9529 26.2222 23.1358 25.827 22.5089L24.7552 20.8086C25.1035 20.1755 25.3853 19.5003 25.5911 18.7925L27.5509 18.3482C28.2737 18.1843 28.7867 17.5419 28.7867 16.8008V15.2008C28.7867 14.4596 28.2737 13.8172 27.5509 13.6534L25.5913 13.2091C25.3857 12.5015 25.104 11.8264 24.7559 11.1935L25.8278 9.49296C26.2231 8.866 26.1316 8.04896 25.6075 7.5249L24.4762 6.39353C23.9521 5.86947 23.1351 5.77802 22.5081 6.17324L20.8077 7.24515C20.1744 6.89682 19.4989 6.61497 18.7909 6.40926L18.3466 4.44966C18.1828 3.72687 17.5404 3.21381 16.7992 3.21381H15.1992ZM11.1851 9.11672C12.1683 8.42769 13.3059 7.94394 14.5356 7.72769L15.1992 4.80047H16.7992L17.4627 7.72726C18.6931 7.94325 19.8313 8.427 20.8149 9.1162L23.3542 7.51547L24.4856 8.64684L22.8848 11.1862C23.5738 12.1696 24.0574 13.3074 24.2734 14.5373L27.2001 15.2008V16.8008L24.2733 17.4643C24.0571 18.6944 23.5733 19.8323 22.884 20.8157L24.4847 23.355L23.3534 24.4864L20.8138 22.8854C19.8304 23.5742 18.6926 24.0577 17.4628 24.2736L16.7992 27.2004H15.1992L14.5356 24.2731C13.3063 24.057 12.1692 23.5735 11.1863 22.8849L8.64647 24.486L7.5151 23.3546L9.11611 20.8149C8.42724 19.8317 7.94365 18.6941 7.72752 17.4644L4.80017 16.8008V15.2008L7.72739 14.5372C7.94336 13.3077 8.42673 12.1702 9.11531 11.1871L7.51423 8.64722L8.6456 7.51585L11.1851 9.11672ZM18.8467 16.0002C18.8467 17.5723 17.5723 18.8467 16.0002 18.8467C14.4281 18.8467 13.1537 17.5723 13.1537 16.0002C13.1537 14.4281 14.4281 13.1537 16.0002 13.1537C17.5723 13.1537 18.8467 14.4281 18.8467 16.0002ZM20.5267 16.0002C20.5267 18.5001 18.5001 20.5267 16.0002 20.5267C13.5003 20.5267 11.4737 18.5001 11.4737 16.0002C11.4737 13.5003 13.5003 11.4737 16.0002 11.4737C18.5001 11.4737 20.5267 13.5003 20.5267 16.0002Z"
                fill="currentColor" />
        </symbol>
        <symbol id="chevron-down" width="100%" height="100%" viewBox="0 0 32 32" fill="currentColor"
            xmlns="http://www.w3.org/2000/svg">
            <path fill-rule="evenodd" clip-rule="evenodd"
                d="M8.16856 13.7914C8.35742 13.5899 8.67384 13.5797 8.8753 13.7686L16 20.448L23.1247 13.7686C23.3261 13.5797 23.6426 13.5899 23.8314 13.7914C24.0203 13.9928 24.0101 14.3092 23.8086 14.4981L16.342 21.4981C16.1496 21.6784 15.8504 21.6784 15.658 21.4981L8.19136 14.4981C7.9899 14.3092 7.97969 13.9928 8.16856 13.7914Z"
                fill="currentColor" />
        </symbol>
        <symbol id="github" width="100%" height="100%" viewBox="0 0 32 32" fill="currentColor"
            xmlns="http://www.w3.org/2000/svg">
            <path fill-rule="evenodd" clip-rule="evenodd"
                d="M15.9988 2.46667C8.52654 2.46667 2.46667 8.52574 2.46667 16.0005C2.46667 21.9789 6.34402 27.0518 11.7218 28.8421C12.3989 28.9659 12.6456 28.548 12.6456 28.1891C12.6456 27.8676 12.634 27.0169 12.6274 25.8878C8.86301 26.7053 8.06877 24.0733 8.06877 24.0733C7.45315 22.5098 6.56585 22.0935 6.56585 22.0935C5.3371 21.2544 6.6589 21.2711 6.6589 21.2711C8.01726 21.3666 8.73175 22.666 8.73175 22.666C9.9389 24.7338 11.8996 24.1365 12.6706 23.79C12.7935 22.916 13.1433 22.3195 13.5296 21.9814C10.5246 21.6391 7.36508 20.4785 7.36508 15.2926C7.36508 13.8146 7.89264 12.6075 8.75834 11.6612C8.61876 11.3189 8.15434 9.94306 8.89126 8.07957C8.89126 8.07957 10.027 7.71568 12.6124 9.46617C13.6916 9.16625 14.8498 9.01671 16.0004 9.0109C17.1503 9.01671 18.3076 9.16625 19.3884 9.46617C21.9722 7.71568 23.1063 8.07957 23.1063 8.07957C23.8448 9.94306 23.3804 11.3189 23.2417 11.6612C24.109 12.6075 24.6324 13.8146 24.6324 15.2926C24.6324 20.4918 21.4679 21.6358 18.4538 21.9706C18.939 22.3885 19.3718 23.2143 19.3718 24.4771C19.3718 26.2858 19.3552 27.7455 19.3552 28.1891C19.3552 28.5514 19.5995 28.9726 20.2857 28.8405C25.6593 27.0468 29.5333 21.9781 29.5333 16.0005C29.5333 8.52574 23.4735 2.46667 15.9988 2.46667"
                fill="currentColor" />
        </symbol>
        <symbol id="threads" width="100%" height="100%" viewBox="0 0 32 32" fill="currentColor"
            xmlns="http://www.w3.org/2000/svg">
            <path
                d="M22.6409 14.9775C22.5202 14.9197 22.3977 14.864 22.2736 14.8107C22.0575 10.8285 19.8815 8.54865 16.2278 8.52531C16.2113 8.52521 16.1948 8.52521 16.1782 8.52521C13.9928 8.52521 12.1753 9.45805 11.0566 11.1555L13.066 12.534C13.9017 11.266 15.2133 10.9957 16.1792 10.9957C16.1904 10.9957 16.2016 10.9957 16.2126 10.9958C17.4156 11.0035 18.3235 11.3533 18.911 12.0354C19.3386 12.532 19.6246 13.2182 19.7662 14.0843C18.6996 13.903 17.546 13.8473 16.3129 13.918C12.8391 14.1181 10.6058 16.1441 10.7558 18.9592C10.8319 20.3872 11.5433 21.6157 12.7589 22.4183C13.7866 23.0967 15.1103 23.4285 16.486 23.3534C18.3027 23.2537 19.728 22.5606 20.7223 21.2932C21.4774 20.3307 21.955 19.0834 22.1659 17.5117C23.0317 18.0342 23.6734 18.7218 24.0277 19.5484C24.6303 20.9535 24.6655 23.2625 22.7814 25.1449C21.1307 26.794 19.1465 27.5074 16.1478 27.5294C12.8215 27.5048 10.3058 26.438 8.67018 24.3587C7.13855 22.4117 6.347 19.5995 6.31747 16C6.347 12.4005 7.13855 9.58823 8.67018 7.64123C10.3058 5.56196 12.8214 4.49521 16.1478 4.47049C19.4983 4.4954 22.0578 5.56729 23.756 7.65658C24.5887 8.68115 25.2166 9.96962 25.6304 11.4719L27.9852 10.8437C27.4835 8.99449 26.6941 7.40104 25.6199 6.07954C23.4428 3.40097 20.2587 2.02846 16.156 2H16.1396C12.0453 2.02836 8.89681 3.4061 6.78167 6.0949C4.89948 8.4876 3.9286 11.8169 3.89598 15.9902L3.89587 16L3.89598 16.0098C3.9286 20.1831 4.89948 23.5125 6.78167 25.9051C8.89681 28.5939 12.0453 29.9717 16.1396 30H16.156C19.7961 29.9748 22.3619 29.0217 24.4756 26.9099C27.241 24.1471 27.1577 20.684 26.2463 18.5581C25.5924 17.0335 24.3456 15.7953 22.6409 14.9775ZM16.3559 20.8864C14.8334 20.9722 13.2517 20.2888 13.1737 18.8251C13.1159 17.7398 13.9461 16.5288 16.4494 16.3845C16.7361 16.368 17.0174 16.3599 17.2937 16.3599C18.203 16.3599 19.0536 16.4482 19.827 16.6173C19.5385 20.2197 17.8466 20.8046 16.3559 20.8864Z"
                fill="currentColor" />
        </symbol>
        <symbol id="openai" width="100%" height="100%" viewBox="0 0 32 32" fill="currentColor"
            xmlns="http://www.w3.org/2000/svg">
            <path
                d="M28.1536 13.4602C28.7974 11.5536 28.5757 9.46491 27.5462 7.73063C25.9979 5.07057 22.8853 3.70204 19.8455 4.34605C18.4931 2.84277 16.5502 1.98788 14.5133 2.00013C11.406 1.99313 8.64905 3.96717 7.69311 6.88448C5.69698 7.28787 3.97398 8.52077 2.96571 10.2682C1.40588 12.9212 1.76148 16.2656 3.84539 18.5406C3.2016 20.4473 3.42329 22.5359 4.45283 24.2702C6.00114 26.9303 9.11372 28.2988 12.1536 27.6548C13.505 29.1581 15.4488 30.013 17.4857 29.9999C20.5948 30.0077 23.3526 28.0319 24.3086 25.112C26.3047 24.7086 28.0277 23.4757 29.036 21.7283C30.594 19.0752 30.2376 15.7335 28.1545 13.4585L28.1536 13.4602ZM17.4875 28.1702C16.2434 28.1719 15.0383 27.7423 14.0832 26.9557C14.1266 26.9329 14.202 26.8918 14.2508 26.862L19.9013 23.642C20.1904 23.4801 20.3678 23.1765 20.366 22.8483V14.988L22.7541 16.3487C22.7798 16.3609 22.7966 16.3854 22.8002 16.4134V22.9227C22.7966 25.8173 20.421 28.1641 17.4875 28.1702ZM6.06233 23.355C5.43893 22.2927 5.21457 21.0475 5.42829 19.8391C5.46996 19.8636 5.54357 19.9083 5.59589 19.938L11.2464 23.1581C11.5328 23.3235 11.8875 23.3235 12.1749 23.1581L19.0731 19.2275V21.9488C19.0748 21.9768 19.0615 22.0039 19.0394 22.0214L13.3277 25.2756C10.7835 26.7212 7.53437 25.8619 6.06321 23.355H6.06233ZM4.57521 11.1843C5.19595 10.1203 6.17584 9.30654 7.34283 8.8839C7.34283 8.93203 7.34017 9.01691 7.34017 9.07641V15.5174C7.3384 15.8447 7.51575 16.1483 7.80395 16.3102L14.7022 20.2399L12.3141 21.6005C12.2901 21.6163 12.26 21.6189 12.2334 21.6075L6.52079 18.3507C3.98196 16.8999 3.11115 13.6948 4.57432 11.1852L4.57521 11.1843ZM24.196 15.6898L17.2978 11.7592L19.6858 10.3994C19.7098 10.3837 19.7399 10.3811 19.7665 10.3924L25.4791 13.6466C28.0224 15.0965 28.8941 18.307 27.4247 20.8165C26.8031 21.8788 25.8241 22.6926 24.658 23.1161V16.4826C24.6606 16.1553 24.4842 15.8526 24.1969 15.6898H24.196ZM26.5725 12.16C26.5308 12.1346 26.4572 12.0908 26.4049 12.0611L20.7544 8.84103C20.468 8.67565 20.1133 8.67565 19.8259 8.84103L12.9277 12.7716V10.0503C12.926 10.0223 12.9393 9.99518 12.9614 9.97768L18.6731 6.72611C21.2173 5.27795 24.47 6.13984 25.9367 8.65115C26.5566 9.71167 26.7809 10.9533 26.5707 12.16H26.5725ZM11.6295 17.0102L9.24052 15.6495C9.21481 15.6373 9.19796 15.6128 9.19441 15.5848V9.07553C9.19619 6.17747 11.5789 3.82892 14.5159 3.83067C15.7583 3.83067 16.9608 4.26118 17.9158 5.04519C17.8724 5.06795 17.7979 5.10907 17.7482 5.13882L12.0977 8.35889C11.8086 8.52077 11.6313 8.82353 11.633 9.15166L11.6295 17.0085V17.0102ZM12.9268 14.2504L15.9995 12.4995L19.0722 14.2495V17.7505L15.9995 19.5005L12.9268 17.7505V14.2504Z"
                fill="currentColor" />
        </symbol>
        <symbol id="pencil-square" width="100%" height="100%" viewBox="0 0 32 32" fill="currentColor"
            xmlns="http://www.w3.org/2000/svg">
            <path fill-rule="evenodd" clip-rule="evenodd"
                d="M24.6464 2.64645C24.8417 2.45118 25.1582 2.45118 25.3535 2.64645L29.3535 6.64645C29.5488 6.84171 29.5488 7.15829 29.3535 7.35355L21.4109 15.2962C21.3349 15.3722 21.2471 15.4354 21.151 15.4835L13.2236 19.4472C13.0311 19.5435 12.7986 19.5057 12.6464 19.3536C12.4942 19.2014 12.4565 18.9689 12.5527 18.7764L16.5165 10.849C16.5645 10.7528 16.6278 10.6651 16.7038 10.5891L24.6464 2.64645ZM25 3.70711L17.4109 11.2962L15.1786 15.7607L15.4697 15.4697L16.5303 16.5303L16.2394 16.8213L20.7038 14.5891L28.2928 7L25 3.70711ZM26.5 24.6V13.5L27.5 12.5V24.6V24.6207V24.6207C27.5 25.0232 27.5 25.3553 27.4779 25.6259C27.4549 25.907 27.4057 26.1653 27.282 26.408C27.0903 26.7843 26.7843 27.0903 26.408 27.282C26.1653 27.4057 25.907 27.4549 25.6259 27.4779C25.3553 27.5 25.0232 27.5 24.6207 27.5H24.6207H24.6H7.4H7.37934H7.37928C6.97683 27.5 6.64467 27.5 6.37409 27.4779C6.09304 27.4549 5.83469 27.4057 5.59202 27.282C5.2157 27.0903 4.90973 26.7843 4.71799 26.408C4.59434 26.1653 4.54506 25.907 4.5221 25.6259C4.49999 25.3553 4.49999 25.0231 4.5 24.6206L4.5 24.6V7.4L4.5 7.37935C4.49999 6.97686 4.49999 6.64468 4.5221 6.37408C4.54506 6.09304 4.59434 5.83468 4.71799 5.59202C4.90973 5.21569 5.2157 4.90973 5.59202 4.71799C5.83469 4.59434 6.09304 4.54506 6.37409 4.52209C6.64469 4.49999 6.97687 4.49999 7.37935 4.5L7.4 4.5H19.5L18.5 5.5H7.4C6.97171 5.5 6.68056 5.50039 6.45552 5.51877C6.23631 5.53668 6.12421 5.56915 6.04601 5.60899C5.85785 5.70486 5.70487 5.85785 5.60899 6.04601C5.56915 6.12421 5.53669 6.23631 5.51878 6.45552C5.50039 6.68056 5.5 6.97171 5.5 7.4V24.6C5.5 25.0283 5.50039 25.3194 5.51878 25.5445C5.53669 25.7637 5.56915 25.8758 5.60899 25.954C5.70487 26.1422 5.85785 26.2951 6.04601 26.391C6.12421 26.4308 6.23631 26.4633 6.45552 26.4812C6.68056 26.4996 6.97171 26.5 7.4 26.5H24.6C25.0283 26.5 25.3194 26.4996 25.5445 26.4812C25.7637 26.4633 25.8758 26.4308 25.954 26.391C26.1422 26.2951 26.2951 26.1422 26.391 25.954C26.4309 25.8758 26.4633 25.7637 26.4812 25.5445C26.4996 25.3194 26.5 25.0283 26.5 24.6Z"
                fill="currentColor" />
        </symbol>
        <symbol id="eye-none" width="100%" height="100%" viewBox="0 0 32 32" fill="currentColor"
            xmlns="http://www.w3.org/2000/svg">
            <path fill-rule="evenodd" clip-rule="evenodd"
                d="M26.6202 6.08689C26.8155 5.89163 26.8155 5.57505 26.6202 5.37978C26.425 5.18452 26.1084 5.18452 25.9131 5.37978L22.0428 9.25009C20.1986 8.46648 18.1675 8.03334 16 8.03334C10.2079 8.03334 5.38974 11.1264 2.50935 15.735C2.40802 15.8972 2.40802 16.1029 2.50935 16.265C4.12051 18.8429 6.33794 20.9465 8.99299 22.2999L5.3798 25.9131C5.18453 26.1084 5.18453 26.425 5.3798 26.6202C5.57506 26.8155 5.89164 26.8155 6.0869 26.6202L9.9572 22.7499C11.8014 23.5335 13.8325 23.9667 16 23.9667C21.7922 23.9667 26.6103 20.8736 29.4907 16.265C29.592 16.1029 29.592 15.8972 29.4907 15.735C27.8795 13.1572 25.6621 11.0535 23.007 9.70009L26.6202 6.08689ZM21.2756 10.0173C19.6501 9.38103 17.8789 9.03334 16 9.03334C10.7027 9.03334 6.26193 11.7971 3.52638 16C5.09191 18.4053 7.21593 20.3392 9.73936 21.5536L21.2756 10.0173ZM10.7244 21.9827L22.2607 10.4465C24.7841 11.6608 26.9081 13.5947 28.4737 16C25.7381 20.2029 21.2973 22.9667 16 22.9667C14.1211 22.9667 12.35 22.619 10.7244 21.9827Z"
                fill="currentColor" />
        </symbol>
    </defs>
</svg>