<svg xmlns="http://www.w3.org/2000/svg" xmlns:xlink="http://www.w3.org/1999/xlink">
    <defs>
        <symbol id="warning" width="100%" height="100%" viewBox="0 0 32 32" xmlns="http://www.w3.org/2000/svg">
            <path
                d="M10.4574 9.60001C12.2763 6.44963 13.1857 4.87444 14.3731 4.34582C15.4087 3.88473 16.5913 3.88473 17.6269 4.34582C18.8143 4.87444 19.7237 6.44963 21.5426 9.6L26.9119 18.9C28.7308 22.0504 29.6402 23.6256 29.5044 24.9181C29.3859 26.0455 28.7946 27.0697 27.8774 27.7361C26.826 28.5 25.0071 28.5 21.3694 28.5H10.6307C6.99291 28.5 5.17404 28.5 4.12258 27.7361C3.20545 27.0697 2.61413 26.0455 2.49563 24.9181C2.35978 23.6256 3.26921 22.0504 5.08808 18.9L10.4574 9.60001Z"
                fill="currentColor" />
            <path
                d="M14.88 19.7464L14.6 10.1664H17.34L17.04 19.7464H14.88ZM16.02 24.3064C15.54 24.3064 15.1466 24.1598 14.84 23.8664C14.5466 23.5731 14.4 23.2198 14.4 22.8064C14.4 22.3798 14.5466 22.0198 14.84 21.7264C15.1466 21.4331 15.54 21.2864 16.02 21.2864C16.4733 21.2864 16.8466 21.4331 17.14 21.7264C17.4466 22.0198 17.6 22.3798 17.6 22.8064C17.6 23.2198 17.4466 23.5731 17.14 23.8664C16.8466 24.1598 16.4733 24.3064 16.02 24.3064Z"
                fill="black" />
        </symbol>
    </defs>
</svg>