<svg xmlns="http://www.w3.org/2000/svg" xmlns:xlink="http://www.w3.org/1999/xlink">
    <defs>
        <symbol id="warning" width="100%" height="100%" viewBox="0 0 32 32" xmlns="http://www.w3.org/2000/svg">
            <g>
                <path
                    d="M15.134 6.5C15.5189 5.83333 16.4811 5.83333 16.866 6.5L28.1244 26C28.5093 26.6667 28.0281 27.5 27.2583 27.5H4.74167C3.97187 27.5 3.49074 26.6667 3.87564 26L15.134 6.5Z"
                    fill="currentColor" />
                <path
                    d="M14.932 21.359L14.638 11.3H17.515L17.2 21.359H14.932ZM16.129 26.147C15.625 26.147 15.212 25.993 14.89 25.685C14.582 25.377 14.428 25.006 14.428 24.572C14.428 24.124 14.582 23.746 14.89 23.438C15.212 23.13 15.625 22.976 16.129 22.976C16.605 22.976 16.997 23.13 17.305 23.438C17.627 23.746 17.788 24.124 17.788 24.572C17.788 25.006 17.627 25.377 17.305 25.685C16.997 25.993 16.605 26.147 16.129 26.147Z"
                    fill="white" />
            </g>
        </symbol>
    </defs>
</svg>