<svg xmlns="http://www.w3.org/2000/svg" xmlns:xlink="http://www.w3.org/1999/xlink">
    <defs>
        <symbol id="warning" width="100%" height="100%" viewBox="0 0 32 32" xmlns="http://www.w3.org/2000/svg">
            <path
                d="M10.4574 9.60001C12.2763 6.44963 13.1857 4.87444 14.3731 4.34582C15.4087 3.88473 16.5913 3.88473 17.6269 4.34582C18.8143 4.87444 19.7237 6.44963 21.5426 9.6L26.9119 18.9C28.7308 22.0504 29.6402 23.6256 29.5044 24.9181C29.3859 26.0455 28.7946 27.0697 27.8774 27.7361C26.826 28.5 25.0071 28.5 21.3694 28.5H10.6307C6.99291 28.5 5.17404 28.5 4.12258 27.7361C3.20545 27.0697 2.61413 26.0455 2.49563 24.9181C2.35978 23.6256 3.26921 22.0504 5.08808 18.9L10.4574 9.60001Z"
                fill="currentColor" />
            <path
                d="M14.88 19.7464L14.6 10.1664H17.34L17.04 19.7464H14.88ZM16.02 24.3064C15.54 24.3064 15.1466 24.1598 14.84 23.8664C14.5466 23.5731 14.4 23.2198 14.4 22.8064C14.4 22.3798 14.5466 22.0198 14.84 21.7264C15.1466 21.4331 15.54 21.2864 16.02 21.2864C16.4733 21.2864 16.8466 21.4331 17.14 21.7264C17.4466 22.0198 17.6 22.3798 17.6 22.8064C17.6 23.2198 17.4466 23.5731 17.14 23.8664C16.8466 24.1598 16.4733 24.3064 16.02 24.3064Z"
                fill="black" />
        </symbol>
        <symbol id="sun" width="100%" height="100%" viewBox="0 0 32 32" fill="currentColor"
            xmlns="http://www.w3.org/2000/svg">
            <path fill-rule="evenodd" clip-rule="evenodd"
                d="M16 2.43332C16.2762 2.43332 16.5 2.65718 16.5 2.93332V6.66665C16.5 6.94279 16.2762 7.16665 16 7.16665C15.7239 7.16665 15.5 6.94279 15.5 6.66665V2.93332C15.5 2.65718 15.7239 2.43332 16 2.43332ZM6.40693 6.4069C6.6022 6.21164 6.91878 6.21164 7.11404 6.4069L9.75391 9.04677C9.94917 9.24203 9.94917 9.55861 9.75391 9.75388C9.55864 9.94914 9.24206 9.94914 9.0468 9.75388L6.40693 7.11401C6.21167 6.91875 6.21167 6.60217 6.40693 6.4069ZM2.93335 15.5C2.65721 15.5 2.43335 15.7238 2.43335 16C2.43335 16.2761 2.65721 16.5 2.93335 16.5H6.66668C6.94283 16.5 7.16668 16.2761 7.16668 16C7.16668 15.7238 6.94283 15.5 6.66668 15.5H2.93335ZM6.40693 25.5931C6.21167 25.3978 6.21167 25.0812 6.40693 24.886L9.0468 22.2461C9.24206 22.0508 9.55864 22.0508 9.75391 22.2461C9.94917 22.4414 9.94917 22.7579 9.75391 22.9532L7.11404 25.5931C6.91878 25.7883 6.6022 25.7883 6.40693 25.5931ZM25.3334 15.5C25.0572 15.5 24.8334 15.7238 24.8334 16C24.8334 16.2761 25.0572 16.5 25.3334 16.5H29.0667C29.3428 16.5 29.5667 16.2761 29.5667 16C29.5667 15.7238 29.3428 15.5 29.0667 15.5H25.3334ZM22.2461 9.75388C22.0509 9.55861 22.0509 9.24203 22.2461 9.04677L24.886 6.4069C25.0813 6.21164 25.3978 6.21164 25.5931 6.4069C25.7884 6.60217 25.7884 6.91875 25.5931 7.11401L22.9532 9.75388C22.758 9.94914 22.4414 9.94914 22.2461 9.75388ZM16.5 25.3333C16.5 25.0572 16.2762 24.8333 16 24.8333C15.7239 24.8333 15.5 25.0572 15.5 25.3333V29.0667C15.5 29.3428 15.7239 29.5667 16 29.5667C16.2762 29.5667 16.5 29.3428 16.5 29.0667V25.3333ZM22.2461 22.2461C22.4414 22.0508 22.758 22.0508 22.9532 22.2461L25.5931 24.886C25.7884 25.0812 25.7884 25.3978 25.5931 25.5931C25.3978 25.7883 25.0813 25.7883 24.886 25.5931L22.2461 22.9532C22.0509 22.7579 22.0509 22.4414 22.2461 22.2461ZM11.8333 16C11.8333 13.6988 13.6988 11.8333 16 11.8333C18.3012 11.8333 20.1667 13.6988 20.1667 16C20.1667 18.3012 18.3012 20.1667 16 20.1667C13.6988 20.1667 11.8333 18.3012 11.8333 16ZM16 10.8333C13.1465 10.8333 10.8333 13.1465 10.8333 16C10.8333 18.8535 13.1465 21.1667 16 21.1667C18.8535 21.1667 21.1667 18.8535 21.1667 16C21.1667 13.1465 18.8535 10.8333 16 10.8333Z"
                fill="currentColor" />
        </symbol>
        <symbol id="moon" width="100%" height="100%" viewBox="0 0 32 32" fill="currentColor"
            xmlns="http://www.w3.org/2000/svg">
            <path fill-rule="evenodd" clip-rule="evenodd"
                d="M7.06666 2.93333C7.06666 2.71241 6.88757 2.53333 6.66666 2.53333C6.44574 2.53333 6.26666 2.71241 6.26666 2.93333V4.39999H4.79999C4.57908 4.39999 4.39999 4.57908 4.39999 4.79999C4.39999 5.02091 4.57908 5.19999 4.79999 5.19999H6.26666V6.66666C6.26666 6.88757 6.44574 7.06666 6.66666 7.06666C6.88757 7.06666 7.06666 6.88757 7.06666 6.66666V5.19999H8.53333C8.75424 5.19999 8.93333 5.02091 8.93333 4.79999C8.93333 4.57908 8.75424 4.39999 8.53333 4.39999H7.06666V2.93333ZM12.6667 8.53333C12.6667 8.31241 12.4876 8.13333 12.2667 8.13333C12.0457 8.13333 11.8667 8.31241 11.8667 8.53333V9.99999H10.4C10.1791 9.99999 9.99999 10.1791 9.99999 10.4C9.99999 10.6209 10.1791 10.8 10.4 10.8H11.8667V12.2667C11.8667 12.4876 12.0457 12.6667 12.2667 12.6667C12.4876 12.6667 12.6667 12.4876 12.6667 12.2667V10.8H14.1333C14.3542 10.8 14.5333 10.6209 14.5333 10.4C14.5333 10.1791 14.3542 9.99999 14.1333 9.99999H12.6667V8.53333ZM5.19999 14.1333C5.19999 13.9124 5.02091 13.7333 4.79999 13.7333C4.57908 13.7333 4.39999 13.9124 4.39999 14.1333V15.6H2.93333C2.71241 15.6 2.53333 15.7791 2.53333 16C2.53333 16.2209 2.71241 16.4 2.93333 16.4H4.39999V17.8667C4.39999 18.0876 4.57908 18.2667 4.79999 18.2667C5.02091 18.2667 5.19999 18.0876 5.19999 17.8667V16.4H6.66666C6.88757 16.4 7.06666 16.2209 7.06666 16C7.06666 15.7791 6.88757 15.6 6.66666 15.6H5.19999V14.1333ZM17.9489 3.8328L17.3929 3.75767C16.9945 3.71303 16.7596 4.17564 16.9882 4.50499C17.2509 4.88364 17.493 5.27775 17.7128 5.68568C18.6484 7.42242 19.1794 9.40943 19.1794 11.5204C19.1794 17.6278 14.7353 22.6973 8.9046 23.6715C8.45378 23.7467 7.99182 23.7975 7.52553 23.8225C7.12521 23.8438 6.90432 24.3133 7.18417 24.6002C7.31166 24.731 7.44202 24.8589 7.57515 24.984L7.70986 25.1085L8.19519 25.5284L8.54614 25.806L8.77223 25.9742L9.1212 26.2186L9.44951 26.4328C9.6753 26.575 9.90604 26.7101 10.1416 26.8378L10.6333 27.0903L11.1197 27.3134L11.685 27.5414L12.1392 27.7014C12.3892 27.7839 12.6428 27.8587 12.8987 27.9252C13.0929 27.9757 13.289 28.0216 13.4876 28.0628C13.7226 28.1116 13.96 28.1537 14.1995 28.1889L14.7912 28.2613L15.2895 28.3C15.5266 28.3136 15.7655 28.3204 16.0061 28.3204C22.8101 28.3204 28.326 22.8046 28.326 16.0005C28.326 15.5342 28.3001 15.074 28.2497 14.6212L28.1809 14.1036C28.1165 13.6869 28.0312 13.2771 27.9264 12.876C27.7998 12.3919 27.6446 11.9195 27.4631 11.4618L27.2522 10.9625L27.108 10.6528L26.9697 10.3751C26.6732 9.79846 26.3326 9.24821 25.9515 8.72793L25.666 8.35328L25.2947 7.90677L24.9894 7.56944L24.7662 7.33778L24.4663 7.04462L24.0516 6.67013L23.4528 6.18494L22.9969 5.85468L22.4515 5.49902L21.8513 5.15273L21.2402 4.84443L21.0284 4.74732L20.5825 4.55849L20.0655 4.36492L19.5946 4.21128L18.9881 4.04384L18.4939 3.93178L17.9489 3.8328ZM21.4194 11.8938C21.4194 9.98168 21.0404 8.15684 20.3539 6.49131C23.9564 8.14128 26.4594 11.7788 26.4594 16.0005C26.4594 21.7737 21.7792 26.4538 16.0061 26.4538C14.3881 26.4538 12.8565 26.0868 11.4893 25.4308C14.2116 24.5756 16.5802 22.922 18.3207 20.7444C18.5753 21.093 18.9872 21.3195 19.452 21.3195C20.2252 21.3195 20.852 20.6927 20.852 19.9195C20.852 19.2528 20.386 18.695 19.762 18.5539C19.8779 18.3365 19.9882 18.1156 20.0929 17.8916C20.4494 18.1124 20.8698 18.2399 21.3199 18.2399C22.6086 18.2399 23.6533 17.1952 23.6533 15.9066C23.6533 14.6183 22.6092 13.5738 21.321 13.5732C21.386 13.0225 21.4194 12.462 21.4194 11.8938Z"
                fill="currentColor" />
        </symbol>
        <symbol id="gear" width="100%" height="100%" viewBox="0 0 32 32" fill="currentColor"
            xmlns="http://www.w3.org/2000/svg">
            <path fill-rule="evenodd" clip-rule="evenodd"
                d="M15.1992 3.21381C14.4581 3.21381 13.8157 3.72688 13.6518 4.44966L13.2074 6.40998C12.4999 6.61572 11.825 6.89747 11.1923 7.24561L9.49171 6.17362C8.86476 5.7784 8.04771 5.86985 7.52365 6.39391L6.39228 7.52528C5.86822 8.04934 5.77677 8.86638 6.17199 9.49334L7.24437 11.1945C6.89653 11.8271 6.61503 12.5018 6.40949 13.209L4.44936 13.6534C3.72657 13.8172 3.2135 14.4596 3.2135 15.2008V16.8008C3.2135 17.5419 3.72657 18.1843 4.44936 18.3482L6.40972 18.7926C6.61537 19.5 6.89703 20.1749 7.24507 20.8076L6.17287 22.5085C5.77765 23.1354 5.8691 23.9525 6.39316 24.4765L7.52453 25.6079C8.04859 26.132 8.86563 26.2234 9.49259 25.8282L11.1936 24.7559C11.826 25.1038 12.5004 25.3853 13.2074 25.5909L13.6518 27.5512C13.8157 28.274 14.4581 28.7871 15.1992 28.7871H16.7992C17.5404 28.7871 18.1828 28.274 18.3466 27.5512L18.7909 25.5916C19.4985 25.386 20.1735 25.1044 20.8064 24.7564L22.5072 25.8286C23.1342 26.2238 23.9512 26.1324 24.4753 25.6083L25.6067 24.4769C26.1307 23.9529 26.2222 23.1358 25.827 22.5089L24.7552 20.8086C25.1035 20.1755 25.3853 19.5003 25.5911 18.7925L27.5509 18.3482C28.2737 18.1843 28.7867 17.5419 28.7867 16.8008V15.2008C28.7867 14.4596 28.2737 13.8172 27.5509 13.6534L25.5913 13.2091C25.3857 12.5015 25.104 11.8264 24.7559 11.1935L25.8278 9.49296C26.2231 8.866 26.1316 8.04896 25.6075 7.5249L24.4762 6.39353C23.9521 5.86947 23.1351 5.77802 22.5081 6.17324L20.8077 7.24515C20.1744 6.89682 19.4989 6.61497 18.7909 6.40926L18.3466 4.44966C18.1828 3.72687 17.5404 3.21381 16.7992 3.21381H15.1992ZM11.1851 9.11672C12.1683 8.42769 13.3059 7.94394 14.5356 7.72769L15.1992 4.80047H16.7992L17.4627 7.72726C18.6931 7.94325 19.8313 8.427 20.8149 9.1162L23.3542 7.51547L24.4856 8.64684L22.8848 11.1862C23.5738 12.1696 24.0574 13.3074 24.2734 14.5373L27.2001 15.2008V16.8008L24.2733 17.4643C24.0571 18.6944 23.5733 19.8323 22.884 20.8157L24.4847 23.355L23.3534 24.4864L20.8138 22.8854C19.8304 23.5742 18.6926 24.0577 17.4628 24.2736L16.7992 27.2004H15.1992L14.5356 24.2731C13.3063 24.057 12.1692 23.5735 11.1863 22.8849L8.64647 24.486L7.5151 23.3546L9.11611 20.8149C8.42724 19.8317 7.94365 18.6941 7.72752 17.4644L4.80017 16.8008V15.2008L7.72739 14.5372C7.94336 13.3077 8.42673 12.1702 9.11531 11.1871L7.51423 8.64722L8.6456 7.51585L11.1851 9.11672ZM18.8467 16.0002C18.8467 17.5723 17.5723 18.8467 16.0002 18.8467C14.4281 18.8467 13.1537 17.5723 13.1537 16.0002C13.1537 14.4281 14.4281 13.1537 16.0002 13.1537C17.5723 13.1537 18.8467 14.4281 18.8467 16.0002ZM20.5267 16.0002C20.5267 18.5001 18.5001 20.5267 16.0002 20.5267C13.5003 20.5267 11.4737 18.5001 11.4737 16.0002C11.4737 13.5003 13.5003 11.4737 16.0002 11.4737C18.5001 11.4737 20.5267 13.5003 20.5267 16.0002Z"
                fill="currentColor" />
        </symbol>
        <symbol id="chevron-down" width="100%" height="100%" viewBox="0 0 32 32" fill="currentColor"
            xmlns="http://www.w3.org/2000/svg">
            <path fill-rule="evenodd" clip-rule="evenodd"
                d="M8.16856 13.7914C8.35742 13.5899 8.67384 13.5797 8.8753 13.7686L16 20.448L23.1247 13.7686C23.3261 13.5797 23.6426 13.5899 23.8314 13.7914C24.0203 13.9928 24.0101 14.3092 23.8086 14.4981L16.342 21.4981C16.1496 21.6784 15.8504 21.6784 15.658 21.4981L8.19136 14.4981C7.9899 14.3092 7.97969 13.9928 8.16856 13.7914Z"
                fill="currentColor" />
        </symbol>
    </defs>
</svg>